<svg xmlns="http://www.w3.org/2000/svg" xml:space="preserve" id="레이어_1" x="0px" y="0px" style="enable-background:new 0 0 4252 1075.8" version="1.1" viewBox="0 0 4252 1075.8"><style>.st0{fill:#fff}</style><path d="M3260.5 885.9c-33.8 0-61.1-27.4-61.1-61.1V396c0-33.8 27.4-61.1 61.1-61.1 33.8 0 61.1 27.4 61.1 61.1v428.7c0 33.8-27.4 61.2-61.1 61.2zM804.7 171.4c-33.8 0-61.1 27.4-61.1 61.1v154.4H583.7c-16.9 0-30.5 13.7-30.5 30.5 0 16.9 13.7 30.5 30.5 30.5h159.9v143.5c0 33.8 27.4 61.1 61.1 61.1s61.1-27.4 61.1-61.1v-359c0-33.6-27.3-61-61.1-61zM1627.5 325.2c-33.8 0-61.1 27.4-61.1 61.1V553h-56.7V386.4c0-33.8-27.4-61.1-61.1-61.1s-61.1 27.4-61.1 61.1v409.2c0 33.8 27.4 61.1 61.1 61.1s61.1-27.4 61.1-61.1V613.1h56.7v182.5c0 33.8 27.4 61.1 61.1 61.1s61.1-27.4 61.1-61.1V386.4c0-33.8-27.4-61.2-61.1-61.2zM2144.5 322.4c-20.7 0-37.4 16.8-37.4 37.4v96.8h-79.2c-8.9 0-16.2 7.2-16.2 16.2 0 8.9 7.2 16.2 16.2 16.2h79.2v85.3c0 20.7 16.8 37.4 37.4 37.4s37.4-16.8 37.4-37.4V359.8c0-20.7-16.7-37.4-37.4-37.4zM3154.8 617.8h-510.7c-13.2 0-23.9 10.7-23.9 23.9s10.7 23.9 23.9 23.9h216.4v158.5c0 31.8 25.8 57.6 57.6 57.6s57.6-25.8 57.6-57.6V665.7h179.2c13.2 0 23.9-10.7 23.9-23.9s-10.8-24-24-24zM2577 703.8h-156V606c0-20.3-16.5-36.8-36.8-36.8s-36.8 16.5-36.8 36.8v97.8h-92c-9.4 0-17 7.6-17 17s7.6 17 17 17H2577c9.4 0 17-7.6 17-17s-7.6-17-17-17zM4007.7 325.2c-33.8 0-61.1 27.4-61.1 61.1V543h-111.2c-14.9 0-26.9 12.1-26.9 26.9 0 14.9 12.1 26.9 26.9 26.9h111.2v199.1c0 33.8 27.4 61.1 61.1 61.1 33.8 0 61.1-27.4 61.1-61.1V386.4c0-33.8-27.3-61.2-61.1-61.2zM2829.8 431.6h241.4c14 0 25.3-11.3 25.3-25.3s-11.3-25.3-25.3-25.3h-241.4v-74h241.4c14 0 25.3-11.3 25.3-25.3s-11.3-25.3-25.3-25.3H2816c-13.9-20-37.1-33.1-63.3-33.1-42.6 0-77.1 34.5-77.1 77.1 0 29.5 16.5 55 40.8 68V443c12.6 121.1 132.4 120.3 132.4 120.3h216.6c15.6 0 28.2-12.6 28.2-28.2s-12.6-28.2-28.2-28.2h-198.5c-38.7 0-37.3-63.8-37.3-63.8l.2-11.5zM1880.9 346c-62.5 0-113.2 56.7-113.2 126.6s50.7 126.6 113.2 126.6 113.2-56.7 113.2-126.6S1943.4 346 1880.9 346zm0 213.4s-54.8-43.8-58.1-104.9c-3.3-61.1 29.1-56.7 29.1-56.7s17.3-6.5 26.1 37.1c0 0 9.3-38.9 30-37.5 0 0 24.6-4 30 46.7s-57.1 115.3-57.1 115.3zM2144.3 620c-20.8 0-37.6 16.9-37.6 37.7V682h-140.8c3.1-6 4.8-12.7 4.8-19.9 0-24.1-19.5-43.6-43.6-43.6s-43.6 19.5-43.6 43.6c0 12.2 5 23.2 13 31.1v38.5c0 43.2 35.1 78.3 78.3 78.3H2182V657.7c-.1-20.8-16.9-37.7-37.7-37.7zM2109 779.6h-101.9c-23.9 0-43.2-19.4-43.2-43.2v-23.5H2109v66.7zM3585.9 372.1c-9.1 0-17.9.7-26.6 2.2-7.7-20.4-27.4-34.9-50.5-34.9-29.9 0-54 24.2-54 54 0 11.3 3.4 21.7 9.4 30.4-37.9 37.6-61.8 92.5-61.8 153.6 0 113.4 82.2 205.3 183.6 205.3s183.6-91.9 183.6-205.3-82.3-205.3-183.7-205.3zm-1.1 360.7c-39.3 0-71.2-69.9-71.2-156s31.9-156 71.2-156 71.2 69.9 71.2 156-31.9 156-71.2 156z" class="st0"/><path d="M2479 424.4v-.1h-153.7c-1.6-13.8-13.4-24.5-27.6-24.5-15.4 0-27.8 12.5-27.8 27.8s12.5 27.8 27.8 27.8h138.4c3.2 0 39.1 1.4 39.1 53.6v107.2c0 17.5 14.2 31.7 31.7 31.7s31.7-14.2 31.7-31.7V487.7c0-33.7-26.3-61.3-59.6-63.3z" class="st0"/><path d="M3370.7 148.1s2.5-56.1-53.6-56.1c-49.1 0-56.6 47.9-56.6 47.9s-7.6-50-56.6-47.9c-57 2.5-53.6 56.1-53.6 56.1s-9.6 78.6 110.2 138.3c119.7-59.8 110.2-138.3 110.2-138.3z" style="fill:#ff97b7"/><path d="M1337.3 721.8c-9.1-2-81.6-17.1-133.3-77 0 0 11.1-28.6 13.9-124.4 1.3-45 1.5-72.4 1.2-88.8h101.5c14.9 0 27-12.1 27-27s-12.1-27-27-27H1047c-2.5-24.8-23.4-44.2-48.9-44.2-27.1 0-49.1 22-49.1 49.1s22 49.1 49.1 49.1c.8 0 1.6 0 2.5-.1v.1h98.2v185s-23.3 101.8-140.8 101c-15.8 0-28.6 12.8-28.6 28.6s12.8 28.6 28.6 28.6c0 0 171.9-2 216.1-79.7 0 0 88.2 80.8 158.8 82 19.2.3 28-13.2 28-28.3-.1.1 0-20.3-23.6-27zM543.6 555.3c-9.1-2-91.4-18.4-145.9-92.6 0 0 15.1-19.3 18-115.1 1.4-45 1.5-72.4 1.2-88.8l-1.1-.1c-4.3-39.3-37.6-70-78.1-70-43.4 0-78.6 35.2-78.6 78.6 0 27.2 13.9 51.2 34.9 65.3v108.2s-20.8 112.4-138.2 111.6c-15.8 0-28.6 12.8-28.6 28.6s12.8 28.6 28.6 28.6c0 0 171.9-2 216.1-79.7 0 0 96.8 79.3 167.3 80.6 19.2.3 28-13.2 28-28.3 0 .2.1-20.2-23.6-26.9zM852.1 885H536.7c-38.4 0-64.1-29.9-64.1-68.4V709.8c.1-1.4.1-2.8.1-4.2 0-39.1-31.7-70.8-70.8-70.8S331 666.4 331 705.5c0 20.7 8.9 39.4 23.1 52.3V808c0 69.6 56.4 126 126 126H852c13.5 0 24.5-11 24.5-24.5.1-13.5-10.9-24.5-24.4-24.5z" class="st0"/></svg>